<?xml version="1.0" encoding="utf-8"?>
<!-- Generator: Adobe Illustrator 16.0.0, SVG Export Plug-In . SVG Version: 6.00 Build 0)  -->
<!DOCTYPE svg PUBLIC "-//W3C//DTD SVG 1.1//EN" "http://www.w3.org/Graphics/SVG/1.1/DTD/svg11.dtd">
<svg version="1.1" id="圖層_1" xmlns="http://www.w3.org/2000/svg" xmlns:xlink="http://www.w3.org/1999/xlink" x="0px" y="0px"
	 width="38px" height="38px" viewBox="0 0 38 38" enable-background="new 0 0 38 38" xml:space="preserve">
<path fill="#4D49FB" d="M31.28,27.806l-3.298-3.3c1.232-1.882,1.955-4.125,1.955-6.537C29.938,11.369,24.568,6,17.969,6
	C11.37,6,6,11.369,6,17.969s5.37,11.969,11.969,11.969c2.412,0,4.656-0.724,6.538-1.956l3.297,3.299
	c0.479,0.48,1.109,0.72,1.738,0.72s1.258-0.239,1.737-0.719C32.239,30.321,32.239,28.766,31.28,27.806z M10.915,17.969
	c0-3.89,3.165-7.055,7.055-7.055c3.889,0,7.054,3.165,7.054,7.055s-3.165,7.055-7.054,7.055
	C14.079,25.023,10.915,21.858,10.915,17.969z"/>
</svg>
