<?xml version="1.0" encoding="utf-8"?>
<!-- Generator: Adobe Illustrator 24.1.0, SVG Export Plug-In . SVG Version: 6.00 Build 0)  -->
<svg version="1.1" id="圖層_1" xmlns="http://www.w3.org/2000/svg" xmlns:xlink="http://www.w3.org/1999/xlink" x="0px" y="0px"
	 viewBox="0 0 38 38" style="enable-background:new 0 0 38 38;" xml:space="preserve">
<style type="text/css">
	.st0{fill:#4D49FB;}
</style>
<g>
	<path class="st0" d="M33.8,3.7h-0.5c-1.3,0-2.6,0-3.9,0c-1,0-1.8,0.8-2,1.8c-0.4,1.7-0.7,3.5-1,4.9c-0.1,0.4-0.2,0.5-0.6,0.5l0,0
		c-7.5,0-14,0-20.1,0c-0.5,0-0.9,0.1-1.4,0.3l-0.2,0.1c-0.4,0.1-0.6,0.4-0.8,0.9c-0.2,0.7-0.1,1.5,0.1,2.2v0.2
		C3.7,16.1,4,17.5,4.3,19c0.3,1.6,0.6,3.3,1,4.9c0.2,0.9,0.9,1.5,1.9,1.7c0.3,0,0.6,0,0.8,0c2,0,4,0,6,0h1.5c0.7,0,1.4,0,2.2,0
		c1.8,0,3.6,0,5.4,0l0,0c1.5,0,2.5-0.9,2.6-2.2c0-0.1,0-0.2,0.1-0.4c0-0.1,0-0.1,0-0.2l3.3-16.4c0.1-0.7,0.3-0.8,1-0.8h1
		c0.7,0,1.5,0,2.2,0c0.2,0,0.4,0,0.6-0.1c0.5-0.1,0.8-0.5,0.7-1C34.6,4,34.3,3.7,33.8,3.7z M24.7,18.7c-0.1,0.3-0.1,0.7-0.2,1
		c-0.2,1.1-0.4,2.2-0.6,3.3c0,0.2-0.3,0.5-0.4,0.5c-0.6,0-1.3,0-2,0c-0.2,0-0.4,0-0.6,0l0.1-0.4c0.3-1.4,0.6-2.9,0.9-4.3l0.1-0.1
		c0.8,0,1.5,0,2.3,0L24.7,18.7z M23.6,16.8h-1.3l0.2-0.8c0.2-1.1,0.4-2.1,0.6-3.1l0.1-0.1c0.7,0,1.5,0,2.2,0h0.5l0,0v0.1l-0.1,0.5
		c-0.2,1.1-0.4,2.1-0.7,3.2c0,0-0.1,0.1-0.2,0.1C24.5,16.8,24,16.8,23.6,16.8z M19.9,18.7l-0.2,0.8c-0.3,1.3-0.5,2.6-0.8,3.9
		l-0.1,0.1c-0.7,0-1.3,0-2.1,0h-0.5v-4.8H19.9z M16.5,16.8c-0.1,0-0.2,0-0.2,0s0-0.1,0-0.2c0-0.8,0-1.5,0-2.3c0-0.4,0-0.8,0-1.2
		c0-0.1,0-0.2,0-0.2l0,0h4.8l-0.3,1.4c-0.2,0.8-0.3,1.6-0.5,2.4c0,0.2-0.1,0.2-0.3,0.2l0,0h-0.3C18.7,16.7,17.6,16.7,16.5,16.8z
		 M14.3,18.7v4.9h-0.5c-0.7,0-1.4,0-2.1,0l-0.1-0.1c-0.1-0.2-0.1-0.5-0.2-0.7c0-0.1,0-0.2-0.1-0.3l-0.7-3.7L14.3,18.7L14.3,18.7z
		 M14.3,16.7c0,0-0.1,0.1-0.3,0.1c-0.4,0-0.8,0-1.2,0c-0.2,0-0.4,0-0.7,0c-0.4,0-0.8,0-1.3,0c-0.1,0-0.2,0-0.3,0
		c-0.3,0-0.3,0-0.4-0.3c0-0.1,0-0.2-0.1-0.3l0,0c0-0.8-0.2-1.6-0.3-2.4l-0.2-0.9h4.8l0,0c0,0.1,0,0.2,0,0.2c0,0.4,0,0.7,0,1
		c0,0.8,0,1.5,0,2.3C14.3,16.6,14.3,16.7,14.3,16.7z M8.1,18.7L8.1,18.7c0.6,0,0.6,0,0.8,0.6c0.2,1,0.4,2,0.6,3l0.2,1.2H9.2
		c-0.4,0-0.9,0-1.3,0c-0.5,0-0.7-0.2-0.8-0.6c-0.1-0.6-0.2-1.2-0.4-1.8l-0.5-2.5L8.1,18.7L8.1,18.7z M7.5,13
		c0.1,0.2,0.1,0.5,0.2,0.7v0.2c0.2,0.9,0.4,1.8,0.5,2.8v0.1H7.8c-0.6,0-1.2,0-1.8,0c0,0-0.1-0.1-0.2-0.2c-0.2-0.8-0.3-1.6-0.5-2.4
		c-0.1-0.4-0.1-0.7-0.2-1.1c0-0.1,0-0.2,0-0.2s0.1,0,0.2,0l0,0c0.3,0,0.5,0,0.8,0c0.4,0,0.8,0,1.2,0C7.4,12.8,7.5,12.9,7.5,13z"/>
	<path class="st0" d="M23.9,27c-0.1,0-0.2,0-0.4,0H7.1c-0.4,0-0.8,0.1-1,0.3c-0.2,0.2-0.2,0.4-0.2,0.6c0,0.6,0.5,0.9,1.3,0.9h8.2
		c1.1,0,2.2,0,3.4,0c1.6,0,3.2,0,4.7,0c0.2,0,0.3,0,0.5,0c0.5-0.1,0.8-0.5,0.8-1C24.7,27.5,24.3,27.1,23.9,27z"/>
	<path class="st0" d="M20.4,29.3L20.4,29.3c-1.3,0-2.4,1.1-2.4,2.4c0,0.7,0.2,1.3,0.7,1.7c0.5,0.5,1.1,0.7,1.7,0.7l0,0
		c0.7,0,1.3-0.3,1.7-0.7c0.5-0.5,0.7-1.1,0.7-1.7C22.8,30.3,21.7,29.3,20.4,29.3z M21.1,32.3c-0.2,0.2-0.4,0.3-0.7,0.3l0,0
		c-0.3,0-0.5-0.1-0.7-0.3s-0.3-0.4-0.3-0.7c0-0.5,0.4-1,1-1l0,0c0.5,0,1,0.4,1,1C21.3,31.9,21.3,32.2,21.1,32.3z"/>
	<path class="st0" d="M10.2,29.3L10.2,29.3c-1.3,0-2.4,1.1-2.4,2.4c0,0.7,0.2,1.3,0.7,1.7c0.5,0.5,1.1,0.7,1.7,0.7l0,0
		c0.7,0,1.3-0.3,1.7-0.7c0.5-0.5,0.7-1.1,0.7-1.7C12.6,30.3,11.5,29.3,10.2,29.3z M10.9,32.3c-0.2,0.2-0.4,0.3-0.7,0.3l0,0
		c-0.3,0-0.5-0.1-0.7-0.3s-0.3-0.4-0.3-0.7c0-0.5,0.4-1,1-1l0,0c0.5,0,1,0.4,1,1C11.1,31.9,11.1,32.2,10.9,32.3z"/>
</g>
</svg>
